<?xml version="1.0" encoding="UTF-8"?>
<svg id="Layer_1" data-name="Layer 1" xmlns="http://www.w3.org/2000/svg" viewBox="0 0 545.06 484.99">
  <defs>
    <style>
      .cls-1 {
        fill: #f5f5f5;
        fill-rule: evenodd;
      }
    </style>
  </defs>
  <path class="cls-1" d="M2.3,145.37c-1.71,3.9-2.58,11.45-2.22,15.09.29,3.02,2.55,9.07,4.25,12.28,6.52,12.32,15.4,22.58,20.09,34.89,5.79,15.2,4.6,28.11,4.96,44.09,1.44,64.24.54,125.75.81,189.2.02,5.5-.29,12.06.9,14.72,6.84,15.26,26.82,16.64,33.5-.22,2.21-5.58.63-16.58.31-24.47-1.02-25.21-1.73-49.59-2.49-73.33-1.06-33.14-1.95-67.06-3.61-98.05-.82-15.36-.78-32.43,6.9-47.32,3.61-7,9.4-13.41,13.18-20.36,3.74,1.2,6.96,2.37,9.64-.82,2.7-3.21,1.04-7.82-1.68-11.45-.77-16.59-1.96-34.73-13.89-50.07-5.52,8.79-8.59,20.04-11.26,29.74-4.73,1.94-9.46-.35-15.1-2.29-3.03-1.05-13.14-3.44-15.21-7.01-1.95-3.37,1.84-7.26,3.73-11.29,1.29-2.75,2.39-6.72,3.47-9.81,1.26-3.65,1.77-7.19-.22-10.02-11.98,1.04-29.64,11.9-36.04,26.5Z"/>
  <path class="cls-1" d="M527.67,468.76c-5.98.25-14.85-1.89-17.72-6.24-.86-17.35-.93-34.73-1.53-52.09-.25-7.16-2.53-15.54.09-22.43,1.19-3.13,3.15-6.12,3.35-9.55.24-4.13-.81-8.21-2.15-12.08,3.88-8.79,4-19.24,3.76-28.68-.06-2.17-.14-4.62.8-6.64.96-2.05,2.78-3.71,3.31-5.95,1.06-4.49,1.14-9.24.97-13.83-.98-27.42-3.5-133.76-4.27-170.48-.13-6.06-.53-19.04,4.45-20.15l1.42-.03c3.76,2.35,4.12,12.33,4.26,16.62,2.22,66.18,1.72,89.06,4.29,172.09.09,3.62.31,5.86,1.78,13.49.87,4.51,4.67,7.23,5.07,11.94.47,5.56.43,11.01,1.24,16.57.72,4.91,1.75,9.84,3.98,14.31-1.03,3.5-1.82,7.15-1.67,10.82.14,3.61,1.88,6.5,3.41,9.67,3.28,6.8,1.53,14.7,1.61,21.98.2,17.86.99,35.71.95,53.58-2.67,4.49-11.42,7.04-17.41,7.07h.02Z"/>
  <g>
    <path class="cls-1" d="M68.68,45.57c0,6.31-2.44,11.55-7.3,15.73-1.6,1.39-3.18,2.43-4.73,3.13-1.55.71-3.53,1.35-5.93,1.94-2.57.61-4.93.92-7.06.92-2.34,0-5.09-.44-8.28-1.31-2.41-.67-4.41-1.44-5.99-2.3-1.59-.86-3.27-2.09-5.06-3.67-1.95-1.75-3.45-3.51-4.5-5.29-1.05-1.78-2.1-4.14-3.17-7.07-.81-2.34-1.39-4.31-1.72-5.93-.34-1.62-.51-3.42-.51-5.42,0-.21.01-.52.04-.94.03-.41.04-.71.04-.9.09-2.08.31-3.99.67-5.73.36-1.74.89-3.38,1.59-4.93.7-1.55,1.65-3.24,2.87-5.08,1.27-1.9,2.58-3.52,3.92-4.87,1.34-1.35,2.82-2.52,4.46-3.51,1.64-.99,3.53-1.88,5.68-2.67,3.77-1.38,7.17-2.08,10.21-2.08,2.3,0,4.85.38,7.66,1.14,3.45.94,6.25,2.04,8.42,3.31,2.17,1.27,4.04,3.16,5.63,5.68.81,1.34,1.38,2.33,1.7,2.98.32.65.55,1.45.67,2.4l1.07,7.44h-17.03l-.47-11.97h-17.03v35.76h20.49l-.47-8.9v-.47l14.03.47c.06.51.09,1.22.09,2.14Z"/>
    <polygon class="cls-1" points="85.24 66.83 85.41 42.89 68.14 5.62 84.4 5.62 93.99 29.09 105.66 5.62 116.24 5.62 100.06 41.06 100.06 66.83 85.24 66.83"/>
    <polygon class="cls-1" points="118.94 65.84 118.94 5.99 134.13 5.54 134.13 34.54 156.68 6.46 175.09 6.46 158.05 30.4 175.54 66.29 152.52 66.76 142.41 41.9 132.29 50.18 131.82 65.37 118.94 65.84"/>
    <polygon class="cls-1" points="178.02 67.3 178.02 5.45 225.42 5.45 225.42 16.65 198.26 16.65 198.26 30.92 220.81 30.92 220.81 41.97 191.82 41.97 191.82 53.94 229.09 53.94 229.09 67.3 178.02 67.3"/>
    <polygon class="cls-1" points="233.38 67.3 233.23 5.62 249.96 5.62 249.96 54.86 274.82 54.86 274.82 67.3 233.38 67.3"/>
    <polygon class="cls-1" points="277.96 65.84 277.96 5.99 293.15 5.54 293.15 34.54 315.7 6.46 334.12 6.46 317.07 30.4 334.57 66.29 311.55 66.76 301.43 41.9 291.32 50.18 290.85 65.37 277.96 65.84"/>
    <path class="cls-1" d="M350.09,13.71c6.32,0,11.3,2.39,14.95,7.15,3.65,4.77,5.47,11.29,5.47,19.56s-1.83,14.9-5.51,19.84c-3.67,4.93-8.43,7.4-14.27,7.4s-10.77-2.56-14.09-7.68c-3.32-5.12-4.98-11.5-4.98-19.14,0-5.3.81-10.04,2.43-14.25,1.62-4.21,3.9-7.4,6.82-9.59,2.92-2.19,5.98-3.28,9.18-3.28h0ZM344.13,0h0c1.52,0,2.82.54,3.89,1.62,1.08,1.08,1.61,2.37,1.61,3.87s-.54,2.79-1.61,3.87c-1.07,1.08-2.37,1.62-3.89,1.62s-2.78-.53-3.86-1.6c-1.07-1.07-1.61-2.36-1.61-3.89s.54-2.82,1.61-3.89c1.08-1.06,2.36-1.6,3.86-1.6h0ZM351.4,24.73h0c-2.45,0-4.32,1.41-5.62,4.23-1.3,2.82-1.95,6.68-1.95,11.57s.63,8.87,1.89,11.71c1.26,2.84,3,4.25,5.22,4.25s3.96-1.46,5.28-4.39c1.32-2.92,1.99-6.82,1.99-11.69s-.67-8.92-2-11.63c-1.34-2.71-2.94-4.06-4.81-4.06h0ZM358.33,0h0c1.47,0,2.77.53,3.88,1.57,1.11,1.05,1.67,2.37,1.67,3.97,0,1.5-.55,2.79-1.63,3.88-1.08,1.09-2.39,1.63-3.91,1.63s-2.83-.54-3.92-1.63c-1.09-1.09-1.63-2.38-1.63-3.88s.54-2.86,1.63-3.93c1.09-1.07,2.39-1.61,3.92-1.61Z"/>
    <polygon class="cls-1" points="373.5 65.84 373.5 5.99 388.7 5.54 388.7 34.54 411.25 6.46 429.66 6.46 412.61 30.4 430.11 66.29 407.09 66.76 396.97 41.9 386.86 50.18 386.39 65.37 373.5 65.84"/>
    <polygon class="cls-1" points="432.58 67.3 432.58 5.45 479.99 5.45 479.99 16.65 452.83 16.65 452.83 30.92 475.38 30.92 475.38 41.97 446.39 41.97 446.39 53.94 483.66 53.94 483.66 67.3 432.58 67.3"/>
    <polygon class="cls-1" points="504.38 66.83 504.53 22.65 487.42 22.65 487.42 5.62 538.21 5.62 536.6 18.04 521.63 18.04 521.33 66.83 504.38 66.83"/>
  </g>
  <path class="cls-1" d="M462.68,301.08c.21-5.21,7.84-9.26,17.85-9.98-.05-3.59-.19-7.16-.44-10.7-9.83.11-17.62-3.15-18.55-8.15-.03-.24-.05-.48-.08-.73-.25-5.05,6.47-10.08,15.98-12.38-.59-3.24-1.27-6.44-2.02-9.62-9.32,1.66-17.29-.08-19.42-4.48-.16-.57-.34-1.14-.51-1.7-.62-4.84,5.12-10.65,13.83-14.36-1.04-2.9-2.15-5.77-3.33-8.6-8.79,3.08-16.82,2.71-19.75-1.11-.32-.68-.65-1.36-.98-2.03-1.15-4.67,3.54-11.17,11.4-16.14-1.44-2.59-2.93-5.15-4.48-7.66-8.08,4.37-15.96,5.3-19.53,2.15-.5-.73-1-1.45-1.51-2.18-1.7-4.44,1.9-11.49,8.79-17.56-1.79-2.29-3.64-4.53-5.54-6.74-7.22,5.52-14.76,7.68-18.81,5.26-.67-.71-1.35-1.42-2.04-2.12-2.25-4.15.2-11.59,6-18.58-2.13-1.98-4.29-3.9-6.5-5.78-6.21,6.52-13.25,9.83-17.64,8.18-.85-.66-1.7-1.31-2.56-1.95-2.75-3.79-1.46-11.45,3.13-19.17-2.44-1.64-4.91-3.23-7.43-4.76-5.07,7.36-11.44,11.73-16.03,10.89-.99-.54-1.99-1.07-2.99-1.6-3.26-3.34-3.18-11.06.11-19.37-2.75-1.27-5.54-2.48-8.36-3.63-3.81,8.03-9.36,13.35-14.01,13.3-1.11-.39-2.22-.78-3.34-1.15-3.7-2.82-4.82-10.42-2.92-19.09-3.09-.86-6.21-1.65-9.35-2.36-2.43,8.48-6.99,14.62-11.56,15.41-1.21-.22-2.43-.41-3.65-.61-4.07-2.21-6.39-9.51-5.93-18.33-3.46-.38-6.95-.68-10.47-.87-.14,1.26-.33,2.49-.57,3.66-1.44,6.98-4.55,12.16-8.31,13.45-.61,0-1.22-.02-1.84-.02s-1.22.02-1.83.02c-3.39-1.16-6.27-5.5-7.85-11.48-.46-1.75-.81-3.64-1.03-5.64-3.52.19-7.01.49-10.47.87.47,8.82-1.86,16.12-5.93,18.33-1.6.25-3.19.53-4.78.82-7.52-.29-8.19-7.79-10.43-15.62-3.15.71-6.27,1.5-9.35,2.36,1.91,8.67.78,16.28-2.92,19.09-1.12.37-2.23.75-3.34,1.15-4.65.05-10.2-5.27-14.01-13.3-2.82,1.15-5.61,2.36-8.36,3.63,3.29,8.3,3.37,16.02.11,19.36-1.01.53-2.01,1.06-3.01,1.6-4.59.84-10.95-3.54-16.02-10.89-2.52,1.53-4.99,3.12-7.43,4.76,4.58,7.73,5.87,15.38,3.12,19.17-.86.64-1.72,1.3-2.57,1.96-4.39,1.64-11.43-1.67-17.64-8.18-2.21,1.88-4.38,3.8-6.5,5.78,5.79,6.99,8.25,14.43,6,18.58-.69.71-1.37,1.42-2.05,2.13-4.06,2.41-11.59.25-18.81-5.27-1.89,2.2-3.74,4.45-5.53,6.74,6.88,6.06,10.48,13.11,8.79,17.55-.51.73-1.02,1.46-1.52,2.19-3.57,3.14-11.44,2.21-19.52-2.16-1.55,2.52-3.05,5.07-4.48,7.66,7.86,4.96,12.55,11.47,11.4,16.14-.33.68-.66,1.37-.99,2.05-2.94,3.81-10.96,4.18-19.74,1.11-1.18,2.83-2.29,5.7-3.33,8.6,8.71,3.7,14.44,9.51,13.83,14.36-.17.57-.34,1.14-.51,1.71-2.13,4.39-10.1,6.13-19.42,4.47-.75,3.18-1.43,6.38-2.02,9.62,9.49,2.3,16.21,7.33,15.98,12.37-.03.25-.06.51-.09.76-.94,4.99-8.72,8.25-18.55,8.14-.24,3.54-.39,7.11-.44,10.7,10.02.72,17.64,4.76,17.86,9.98.22,5.22-7.04,9.88-16.97,11.43.33,3.42.75,6.81,1.26,10.18,10.01-.94,18.19,1.79,19.26,6.9,1.07,5.11-5.31,10.9-14.84,14.07.83,3.06,1.73,6.09,2.7,9.1,9.71-2.55,18.23-1.17,20.11,3.69,1.89,4.86-3.48,11.62-12.38,16.29,1.25,2.74,2.55,5.46,3.92,8.13,9.19-4.07,17.82-4.07,20.46.44,2.64,4.5-1.58,12.03-9.62,18.05,1.62,2.44,3.29,4.84,5.02,7.2,8.43-5.46,16.95-6.81,20.26-2.78,3.31,4.03.33,12.13-6.67,19.34,1.96,2.14,3.97,4.23,6.02,6.27,7.48-6.71,15.69-9.38,19.59-5.91,3.9,3.47,2.21,11.93-3.57,20.14,2.28,1.81,4.61,3.57,6.97,5.28,6.34-7.79,14.02-11.71,18.42-8.9,4.4,2.82,4.06,11.43-.37,20.45,2.59,1.46,5.23,2.87,7.89,4.21,5.02-8.7,11.99-13.79,16.77-11.7,4.79,2.08,5.82,10.65,2.88,20.25,2.92,1.08,5.87,2.08,8.85,3.02,3.55-9.4,9.6-15.54,14.66-14.26,5.06,1.28,7.46,9.56,6.11,19.51,3.27.63,6.57,1.18,9.9,1.65,1.96-9.85,6.92-16.9,12.12-16.47,5.2.43,8.93,8.22,9.23,18.26,1.79.05,3.58.08,5.39.08s3.6-.03,5.39-.08c.3-10.04,4.03-17.83,9.23-18.26,5.2-.43,10.16,6.62,12.12,16.47,3.33-.46,6.63-1.01,9.9-1.65-1.35-9.95,1.05-18.23,6.11-19.51,5.06-1.28,11.11,4.87,14.66,14.26,2.98-.94,5.93-1.94,8.84-3.02-2.94-9.61-1.91-18.17,2.88-20.26,4.79-2.08,11.75,3,16.77,11.71,2.67-1.34,5.3-2.75,7.89-4.21-4.43-9.01-4.77-17.63-.37-20.45,4.4-2.81,12.08,1.1,18.42,8.9,2.37-1.71,4.69-3.46,6.97-5.28-5.79-8.21-7.47-16.68-3.57-20.15,3.9-3.47,12.11-.8,19.59,5.91,2.05-2.04,4.06-4.14,6.02-6.27-7-7.21-9.98-15.31-6.67-19.34,3.31-4.03,11.83-2.68,20.26,2.78,1.73-2.36,3.4-4.76,5.02-7.2-8.04-6.02-12.25-13.55-9.62-18.05,2.64-4.5,11.27-4.5,20.46-.43,1.37-2.67,2.68-5.38,3.92-8.13-8.9-4.66-14.26-11.42-12.38-16.29,1.89-4.86,10.4-6.24,20.11-3.69.97-3,1.87-6.03,2.7-9.1-9.53-3.16-15.92-8.96-14.84-14.07,1.07-5.11,9.26-7.85,19.26-6.9.51-3.37.93-6.76,1.26-10.18-9.93-1.55-17.19-6.21-16.97-11.43h0ZM154.33,304.87h0c-6.37,0-11.53-5.16-11.54-11.54,0-6.37,5.16-11.54,11.54-11.54s11.54,5.16,11.54,11.54c0,6.37-5.17,11.54-11.54,11.54h0ZM201.74,397.05h0c-4.5,4.5-11.81,4.5-16.31,0-4.51-4.51-4.51-11.81,0-16.32,4.51-4.51,11.81-4.51,16.32,0,4.5,4.51,4.5,11.81,0,16.32h0ZM202.3,206.17h0c-4.51,4.5-11.81,4.5-16.32,0-4.5-4.5-4.5-11.81,0-16.31,4.51-4.5,11.81-4.51,16.32,0,4.51,4.51,4.51,11.81,0,16.32h0ZM289.69,147.22h0c6.37,0,11.54,5.17,11.54,11.54s-5.16,11.54-11.54,11.54-11.54-5.17-11.54-11.54,5.16-11.54,11.54-11.54h0ZM288.91,440.23h0c-6.37,0-11.54-5.16-11.54-11.54,0-6.37,5.16-11.54,11.54-11.54,6.37,0,11.54,5.17,11.54,11.54s-5.16,11.54-11.54,11.54h0ZM317.66,298.9h0l13.5,48.4-41.86-27.8-41.87,27.8,13.5-48.4-39.38-31.23,50.21-2.11,17.54-47.09,17.53,47.09,50.2,2.11-39.37,31.23h0ZM392.62,397.6h0c-4.51,4.51-11.81,4.51-16.32,0-4.5-4.5-4.51-11.81,0-16.32,4.51-4.5,11.81-4.5,16.32,0,4.5,4.5,4.51,11.81,0,16.31h0ZM393.17,206.73h0c-4.51,4.5-11.81,4.51-16.32,0-4.51-4.51-4.51-11.81,0-16.32,4.5-4.5,11.81-4.5,16.32,0,4.51,4.51,4.51,11.81,0,16.32h0ZM424.27,305.66h0c-6.37,0-11.54-5.16-11.54-11.54s5.16-11.54,11.54-11.54,11.54,5.16,11.54,11.54-5.16,11.54-11.54,11.54Z"/>
</svg>