<?xml version="1.0" encoding="UTF-8"?>
<svg id="Layer_1" xmlns="http://www.w3.org/2000/svg" version="1.1" viewBox="0 0 631.81 609.56">
  <!-- Generator: Adobe Illustrator 30.4.0, SVG Export Plug-In . SVG Version: 2.1.4 Build 226)  -->
  <defs>
    <style>
      .st0 {
        fill: #050505;
      }

      .st1 {
        fill: #f47cab;
      }

      .st2 {
        fill: #d7ff3f;
      }
    </style>
  </defs>
  <path class="st0" d="M327.85,118.57c4.57,0,6.93.03,7.1.06.97.17,1.7.91,1.82,1.87,1.45,9.57,7.47,16.13,17.92,16.16,8.43.03,12.27-6.36,15.9-12.41.62-1.05,1.87-1.56,3.07-1.25l11.33,3.04c1.85.51,3.07,2.24,2.87,4.15-.97,9.94,2.44,16.24,10.25,18.94,10.54,3.61,14.09-.82,20.79-6.84.85-.74,2.04-.88,3.01-.31l10.59,6.11c1.19.68,1.79,2.07,1.42,3.41l-2.02,7.44c-.31,1.14-.26,2.36.11,3.46,2.64,7.72,7.9,12.24,15.73,13.55,1.48.26,2.98.03,4.32-.62l8.69-4.29c.91-.45,1.99-.26,2.67.45l9.34,9.66c.6.6.77,1.53.37,2.33l-5.14,10.71c-.43.88-.54,1.93-.28,2.9,3.41,12.95,11.36,17.46,23.85,13.55,1.36-.45,2.84-.17,3.98.71,3.01,2.33,5.59,6.22,7.72,11.61.34.82.2,1.76-.34,2.5l-7.27,9.83c-.68.91-1.05,2.05-.99,3.21.34,8.26,3.72,13.94,10.2,17.01.85.4,4.49.91,10.85,1.51,1.25.11,2.27.99,2.61,2.19l3.35,11.5c.37,1.19-.14,2.5-1.22,3.15-7.78,4.86-12.75,8.6-11.84,18.2.85,8.52,6.16,13.38,15.93,14.57,1.48.17,2.58,1.33,2.7,2.78.11,1.36.17,3.64.17,6.87s-.06,5.54-.17,6.87c-.11,1.45-1.22,2.61-2.67,2.81-9.8,1.19-15.11,6.05-15.93,14.57-.91,9.6,4.06,13.35,11.84,18.2,1.08.65,1.56,1.93,1.22,3.15l-3.35,11.5c-.34,1.19-1.36,2.07-2.61,2.19-6.39.6-10,1.08-10.85,1.51-6.48,3.07-9.85,8.75-10.2,17.01-.06,1.16.31,2.3.99,3.21l7.27,9.83c.54.74.68,1.68.34,2.5-2.13,5.4-4.69,9.26-7.7,11.61-1.14.88-2.64,1.16-3.98.71-12.5-3.92-20.45.6-23.85,13.55-.26.99-.17,2.02.28,2.9l5.14,10.71c.37.8.23,1.73-.37,2.33l-9.34,9.66c-.68.74-1.76.91-2.67.45l-8.69-4.26c-1.33-.68-2.87-.88-4.32-.62-7.87,1.31-13.09,5.82-15.73,13.55-.37,1.11-.43,2.3-.11,3.46l2.02,7.44c.37,1.31-.23,2.73-1.42,3.41l-10.59,6.11c-.97.57-2.16.43-3.01-.31-6.7-6.02-10.25-10.45-20.79-6.84-7.81,2.7-11.22,9-10.22,18.94.17,1.9-1.05,3.64-2.87,4.15l-11.33,3.04c-1.19.34-2.47-.17-3.07-1.22-3.64-6.05-7.5-12.44-15.93-12.41-10.45.03-16.44,6.59-17.89,16.16-.14.94-.88,1.7-1.82,1.87-.17.03-2.56.03-7.13.03-4.6.03-6.96,0-7.13-.03-.94-.17-1.68-.94-1.82-1.87-1.45-9.57-7.47-16.13-17.92-16.16-8.44-.03-12.27,6.36-15.9,12.41-.62,1.05-1.87,1.56-3.07,1.25l-11.33-3.04c-1.85-.51-3.04-2.24-2.87-4.15.99-9.94-2.44-16.24-10.25-18.94-10.54-3.61-14.08.82-20.79,6.84-.82.74-2.04.88-3.01.31l-10.59-6.11c-1.19-.68-1.76-2.07-1.42-3.41l2.02-7.44c.31-1.14.28-2.36-.11-3.46-2.64-7.72-7.87-12.24-15.73-13.55-1.45-.26-2.98-.03-4.32.62l-8.69,4.29c-.91.45-1.99.26-2.67-.45l-9.34-9.66c-.6-.62-.74-1.53-.37-2.33l5.14-10.71c.43-.91.54-1.93.28-2.9-3.41-12.95-11.36-17.46-23.85-13.55-1.33.45-2.84.17-3.98-.71-3.01-2.36-5.59-6.22-7.72-11.61-.31-.82-.2-1.76.34-2.5l7.27-9.83c.71-.91,1.05-2.05.99-3.21-.31-8.26-3.72-13.94-10.2-17.01-.85-.43-4.46-.91-10.85-1.51-1.22-.11-2.27-.99-2.61-2.19l-3.35-11.5c-.34-1.19.14-2.5,1.22-3.15,7.78-4.86,12.75-8.6,11.84-18.2-.82-8.52-6.13-13.38-15.93-14.57-1.45-.17-2.58-1.36-2.7-2.81-.11-1.33-.17-3.61-.17-6.84s.06-5.54.17-6.87c.11-1.45,1.25-2.61,2.7-2.81,9.8-1.19,15.08-6.05,15.93-14.57.91-9.6-4.06-13.35-11.84-18.2-1.08-.65-1.59-1.93-1.25-3.15l3.35-11.5c.34-1.19,1.39-2.07,2.61-2.19,6.39-.6,10-1.08,10.85-1.51,6.48-3.07,9.88-8.75,10.2-17.01.06-1.16-.28-2.3-.99-3.21l-7.27-9.83c-.54-.74-.65-1.68-.34-2.5,2.13-5.4,4.71-9.29,7.72-11.61,1.14-.88,2.61-1.16,3.98-.71,12.5,3.92,20.45-.62,23.85-13.57.25-.97.14-1.99-.28-2.9l-5.17-10.68c-.37-.8-.23-1.73.37-2.33l9.34-9.68c.71-.71,1.79-.88,2.67-.45l8.69,4.29c1.36.68,2.87.88,4.32.62,7.87-1.31,13.12-5.82,15.73-13.55.4-1.11.43-2.33.11-3.46l-2.02-7.44c-.34-1.33.23-2.73,1.42-3.41l10.59-6.11c.97-.57,2.19-.43,3.01.31,6.7,6.02,10.25,10.45,20.79,6.84,7.81-2.7,11.25-9,10.25-18.94-.2-1.9,1.02-3.66,2.87-4.18l11.33-3.04c1.19-.31,2.44.2,3.07,1.25,3.64,6.05,7.47,12.44,15.9,12.41,10.45-.03,16.47-6.59,17.92-16.16.14-.94.85-1.7,1.82-1.87.17-.03,2.53-.06,7.13-.06v-.02h0ZM173.9,284.14l4.94,2.87c.51.28.88.77,1.05,1.33,1.82,6.42,1.85,11.76.06,15.99-.57,1.39-1.79,2.44-3.27,2.84-7.3,1.9-9.63,7.04-7.01,15.42.2.6.62,1.11,1.16,1.45l7.27,4.18c1.11.62,1.9,1.68,2.27,2.9,1.14,3.95,1.19,8.43.14,13.46-.2.97-.71,1.85-1.48,2.44l-4.46,3.55c-.57.48-.94,1.16-.99,1.9-.26,3.52.6,6.59,2.5,9.23.62.91,1.62,1.48,2.73,1.59,7.5.77,12.16,5.48,13.97,14.09.37,1.68-.03,3.41-1.05,4.77-4.91,6.47-4.29,12.07,1.87,16.81.82.62,1.79.97,2.78.97h7.27c1.11,0,2.16.4,2.95,1.11,3.27,2.84,5.85,5.99,7.75,9.48.57,1.05.54,2.33-.11,3.35-3.92,6.16-2.07,11.36,5.51,15.56.6.34,1.28.45,1.93.31l5.91-1.08c2.16-.4,4.43-.08,6.39.94,4.86,2.53,7.78,5.11,8.75,7.72,1.65,4.32-3.44,8.58,3.12,13.77,4.97,3.95,8.69,4.03,11.16.23.57-.88,1.53-1.42,2.58-1.45,6.96-.2,12.27,1.39,15.88,4.77.97.91,1.99,3.44,3.04,7.61,1.22,4.8,5.14,7.35,11.76,7.72,2.3.14,4.63-1.56,6.93-5.06.79-1.22,2.04-2.07,3.49-2.36,9.68-2.05,15.68.71,18.03,8.23.48,1.51,1.76,2.64,3.32,2.93,3.89.68,8.01.68,12.32,0,1.14-.17,2.02-1.08,2.19-2.21.99-6.84,6.48-10.11,16.44-9.8,1.85.08,3.55.94,4.69,2.36l2.9,3.61c.68.85,1.7,1.36,2.81,1.39,4.06.03,7.84-.74,11.33-2.33,1.48-.68,2.39-2.16,2.33-3.78-.28-7.35,4.2-11.64,13.43-12.86,3.75-.48,5.51,2.1,8.52,3.52.88.43,1.9.45,2.78.06l9.29-4c1.31-.6,2.07-1.99,1.82-3.38-1.59-9.14,2.47-14.97,12.16-17.46,1.14-.28,2.33-.17,3.38.31,5.99,2.81,10.91.77,14.77-6.16.48-.85.68-1.82.6-2.78-.17-1.99-1.05-4.34-2.61-7.07-.48-.85-.48-1.87,0-2.73,2.41-4.34,5-7.7,7.75-10.05,1.16-.99,2.78-1.28,4.2-.71,4.71,1.9,8.63.71,11.76-3.58,4.77-6.59.6-10.28-1.93-15.08-.45-.85-.57-1.85-.28-2.76,1.56-5.06,3.49-8.95,5.82-11.7.74-.85,1.79-1.39,2.93-1.51,7.01-.6,10.34-5.37,9.97-14.26-.03-.77-.4-1.48-.97-1.99l-4.71-4.12c-.77-.65-1.25-1.59-1.39-2.58-1.31-9.12,2.02-15.11,9.94-17.95,1.31-.45,2.19-1.7,2.19-3.12v-7.61c0-1.33-.68-2.58-1.79-3.29l-6.79-4.32c-.68-.43-1.25-.99-1.68-1.68-2.93-4.74-3.55-12.72,1.45-16.93,1.45-1.22,2.53-2.21,3.21-2.98s.99-1.79.88-2.81c-.46-4.12-1.62-7.55-3.47-10.34-.62-.97-1.65-1.59-2.81-1.73-6.73-.85-10.85-5.28-12.41-13.26-.2-1.05-.08-2.16.37-3.12,3.75-8.43,7.67-12.86-2.33-19.42-5.94-3.92-10.42,3.81-16.78-5.51-3.83-5.59-4.32-10.14-1.48-13.57.68-.85.88-1.99.48-3.01-2.87-7.72-7.27-10.59-13.23-8.63-4.12,1.36-6.93,1.68-8.49.94-4.57-2.19-7.87-5.25-9.83-9.17-.48-.96-.62-2.05-.4-3.09,1.53-7.01-1.56-11.39-9.31-13.06-1.17-.26-2.41.08-3.29.88-5.99,5.57-12.47,5.06-19.45-1.51-1.05-.99-1.68-2.36-1.7-3.81-.2-7.5-4.74-10.99-13.6-10.51-1.36.08-2.61.77-3.38,1.87-4.8,6.93-11.87,8.04-21.21,3.29-.54-.26-.94-.71-1.16-1.25l-2.41-5.54c-.23-.51-.6-.94-1.05-1.25-3.83-2.58-7.95-3.04-12.3-1.42-.99.4-1.82,1.11-2.36,2.02l-3.66,6.39c-.31.54-.79.97-1.36,1.25-9.17,4.49-16.1,3.24-20.79-3.78-.62-.94-1.59-1.56-2.67-1.79-5.08-.99-12.47,1.7-12.5,8.01-.03,1.56-.2,2.84-.57,3.89-.28.88-.82,1.65-1.5,2.27-7.47,6.59-14.6,7.07-21.41,1.48-.82-.71-1.93-.99-3.01-.8-8.38,1.56-11.53,5.71-9.43,12.47.31,1.02.26,2.13-.17,3.12-4.03,9.03-10.34,11.96-18.89,8.8-1.11-.4-2.36-.4-3.47.03-3.55,1.39-6.3,4.12-8.26,8.21-1.33,2.73.14,5.03,1.56,7.7.43.82.54,1.76.37,2.67-1.22,5.99-4.12,10-8.66,12.07-1.11.51-2.36.65-3.55.43-8.49-1.59-13.32,2.33-14.48,11.73-.14,1.14.26,2.3,1.08,3.12,1.08,1.14,2.07,2.76,2.95,4.89.31.8.43,1.65.31,2.47-1.31,9.29-5.96,14.2-14,14.77-1.19.08-2.24.82-2.73,1.9-1.56,3.44-2.44,6.59-2.58,9.48-.06.88.4,1.73,1.19,2.19h-.02Z"/>
  <path class="st1" d="M221.33,418.46c-.08-1.76,1.48-4.29.94-6.56-2.87-12.38-10.62-19.14-23.2-20.28-1.11-.11-1.85-1.22-1.48-2.3,1.62-4.66,3.52-9.48,3.07-13.29-1.28-10.39-7.04-17.07-17.35-19.99-.6-.17-.82-.85-.48-1.36,10.71-14.91,8.89-26.92-5.4-36.09-1.14-.74-1.02-2.44.23-3.01,3.75-1.68,6.62-4.26,8.58-7.75,5.99-10.65,4.77-19.74-3.64-27.21-.65-.6-.48-1.68.31-2.02,15.25-6.62,20.05-18.01,14.4-34.11-.31-.94.34-1.9,1.33-1.93,12.3-.23,20.19-7.21,23.71-20.93.68-2.64-1.05-5.88-1.19-8.75-.06-.97.79-1.7,1.73-1.56l7.53,1.16c.2.03.37,0,.57-.03,12.89-2.98,19.71-10.71,20.42-23.17.08-1.39,1.53-2.3,2.84-1.73,11.56,5.08,21.21,3.07,29.02-6.05,1.62-1.9,3.15-6.3,4.46-8.72.54-.97,1.79-1.25,2.67-.62.77.54,1.76,1.36,2.93,2.5,5.74,5.48,15.59,5.48,22.58,2.87,3.38-1.28,7.47-7.1,10.51-9.85,1.11-1.02,2.87-.77,3.66.51,5.82,9.46,14.77,12.81,26.89,10.05.62-.14,1.22-.45,1.73-.88l5-4.2c1.82-1.51,4.57-.62,5.17,1.65,1.76,6.7,5.51,11.13,11.27,13.26,7.19,2.67,13.4,4.89,20.16-.28.82-.62,2.04-.17,2.22.85,3.09,17.18,13.15,24.82,30.13,22.92.77-.08,1.39.62,1.19,1.36-2.56,9.4,1.87,17.72,7.72,23.8,3.21,3.35,7.58,4.69,13.06,4,3.07-.37,5.03,3.18,3.07,5.57-1.39,1.65-2.13,3.18-2.24,4.63-.99,12.98,4.49,21.95,16.47,26.92.94.4,1.22,1.53.6,2.33-10.36,13.09-8.95,24.45,4.26,34.11,1.19.88,1.31,2.64.25,3.69l-7.38,7.35c-.31.31-.57.68-.77,1.11-4.46,9.8-3.49,17.98,2.9,24.54,1.76,1.79,1.25,4.77-.99,5.88l-7.61,3.75c-1.11.57-2.04,1.42-2.67,2.5-4.43,7.53-7.75,16.24-2.53,24.03,1.31,1.93-.03,4.52-2.33,4.57-10.71.31-18,6.19-21.87,17.64-.94,2.84-.74,5.85.65,9.03.68,1.56-.6,3.29-2.3,3.12-15.62-1.68-24.93,5.22-27.97,20.65-.37,1.79-2.24,2.87-3.98,2.27-15.31-5.17-25.9-.23-31.78,14.8-.57,1.45-2.44,1.87-3.58.8-3.72-3.49-6.67-5.88-11.81-6.11-9.54-.4-17.52,3.24-23.97,10.91-.88,1.05-2.5,1.08-3.38.03-3.32-3.81-5.79-7.16-10.2-8.86-9.46-3.69-17.66-2.13-24.62,4.66-1.28,1.25-3.41.82-4.09-.85-6.25-15.53-17.61-20.65-34.05-15.28-.82.26-1.68-.31-1.76-1.16-1.53-16.16-10.85-23.91-27.97-23.31-.88.02-1.61-.66-1.64-1.54v-.04h0ZM430.34,270.14c3.15-3.24,4.49-5.79,4.06-7.64-2.27-9.85-7.61-13.74-16.02-11.67-1.17.28-2.41,0-3.35-.8-6.02-5.08-7.7-10.71-5-16.87.6-1.39.34-2.98-.65-4.12-3.32-3.72-6.59-6.22-9.8-7.44-1.53-.6-3.27-.43-4.66.45-6.39,4.03-11.84,3.12-16.33-2.73-.85-1.11-1.31-2.47-1.31-3.86.06-8.21-4.6-12.52-13.97-12.98-1.42-.08-2.78.51-3.72,1.59-5.23,6.05-11.78,6.59-19.65,1.68-.88-.54-1.5-1.42-1.76-2.44-1.28-5.28-5.54-7.61-12.75-7.01-8.89.74-6.5,7.64-11.98,10.76-6.9,3.95-12.47,3.07-16.7-2.7-1.08-1.45-2.75-2.27-4.54-2.19-3.49.14-7.67,1.9-12.58,5.25-1.25.85-1.9,2.33-1.7,3.81,1.08,8.15-2.93,12.58-11.98,13.32-.85.06-1.68-.06-2.47-.34l-5.91-2.19c-.97-.34-2.02-.31-2.95.11-3.49,1.62-6.81,4.43-10.02,8.46-.62.8-.85,1.82-.62,2.78.17.82.71,1.76,1.65,2.81,3.72,4.26-3.44,12.78-6.76,15.19-.82.6-1.96.68-2.87.2-7.92-4.23-18,9.68-13.01,16.87,3.92,5.65,2.67,6.96.68,13.52-.28.94-2.73,2.27-7.35,4-4.23,1.62-6.87,4.94-7.87,10.03-.77,3.89.97,7.84,4.34,9.97,5.08,3.21,6.67,8.18,4.74,14.88-.28.99-.88,1.87-1.73,2.47-3.04,2.19-4.74,3.64-5.11,4.29-3.55,6.33-3.32,11.64.65,15.9.6.62,1.31,1.16,2.1,1.56,7.07,3.55,17.69,8.63,11.36,17.64-2.22,3.09-3.98,5.65-2.41,9.94,1.59,4.34,4,7.72,7.24,10.14.62.48,1.42.68,2.22.6l6.56-.82c.68-.08,1.39.11,1.96.57,3.83,3.15,7.41,7.07,5.65,12.13-3.12,8.92,2.36,11.64,8.69,16.3,1.45,1.05,3.55.88,5.14-.43,8.97-7.35,20.22,2.19,19.03,11.96-.17,1.28.43,2.56,1.48,3.24,5.03,3.32,12.32,7.61,17.07,2.19,6.62-7.58,15.88-5.11,20.3,3.21,2.64,4.91,7.84,6.3,15.59,4.23,4.89-1.33,4.6-8.55,9.26-10.28,3.49-1.28,6.67-1.59,9.54-.94.28.06.54.17.77.34l6.93,4.77c.65.45,1.48.68,2.27.62,6.5-.37,11.39-2.78,14.6-7.3.6-.85.68-1.93.23-2.87l-.85-1.7c-.51-1.08-.2-2.39.77-3.07l8.52-6.11c.85-.62,2.02-.77,3.01-.34l7.58,3.29c.85.34,1.76.37,2.61.03,3.29-1.33,7.16-3.98,11.61-7.92,1.19-1.05,1.28-2.9.17-4.03-2.39-2.5-2.95-5.08-1.73-7.75,3.18-6.93,7.21-10.11,12.13-9.57,7.5.82,11.16-4.52,13.43-9.91.43-.99.4-2.13-.08-3.09l-4.23-8.55c-.2-.43-.31-.91-.31-1.36.2-6.99,2.93-11.13,8.24-12.41,8.29-2.05,10.42-8.58,9.23-16.16-.2-1.22-.91-2.3-1.96-2.95l-5.48-3.49c-1.08-.68-1.79-1.82-1.96-3.09-1.16-8.49,1.33-14.43,7.55-17.83,1.14-.62,1.9-1.79,1.96-3.09.17-3.32-.74-7.3-2.73-11.93-.48-1.14-1.56-1.93-2.78-2.05-7.9-.71-11.96-5.62-12.16-14.71-.03-.88.31-1.74.91-2.36h-.03,0Z"/>
  <path class="st2" d="M415.06,374.42c-10.39,5.06-14.91,12.67-13.52,22.8.57,4.23-3.55,7.58-7.58,6.13-9.51-3.41-17.12-1.14-22.77,6.82-2.27,3.18-2.44,7.35-4.12,10.36-1.19,2.13-3.98,2.76-5.94,1.31l-6.3-4.69c-.91-.65-2.02-1.02-3.15-1.05-9.71-.11-16.47,3.52-20.3,10.93-1.39,2.7-5.17,2.95-6.93.48l-4.03-5.62c-.37-.48-.77-.88-1.25-1.19-9.68-6.39-18-6.11-24.99.85-2.33,2.3-6.25,1.22-7.07-1.93l-1.5-5.88c-.31-1.11-.79-2.16-1.45-3.07-6.22-8.6-14-11.19-23.29-7.75-4.89,1.79-9.57-3.12-7.5-7.92l.85-1.96c.4-.91.45-1.9.17-2.81-3.44-11.9-10.45-17.3-21.01-16.19-2.84.31-4.77-2.84-3.24-5.25,5.31-8.35,4.83-16.24-1.45-23.66-.82-.96-1.87-1.76-3.04-2.27l-5.91-2.53c-2.67-1.16-4-4.18-3.09-6.93,1.22-3.66,3.69-6.13,7.35-7.35.91-.28,1.5-1.14,1.5-2.07v-14.11c0-1.08-.51-2.07-1.36-2.7l-5.51-4.09c-4.2-3.12-2.87-9.74,2.24-10.96,7.38-1.79,11.64-7.1,12.81-15.93.4-3.09-.48-5.88-2.61-8.29-3.32-3.72-.23-9.57,4.69-8.89,2.53.37,4.71.06,6.56-.94,9.23-4.91,12.89-12.32,10.99-22.24-.65-3.41,2.64-6.25,5.94-5.08,10.54,3.72,18.91.45,25.08-9.8.28-.51.45-1.08.45-1.65v-3.27c0-4.91,5.91-7.41,9.43-4,6.25,6.05,14.03,6.65,23.31,1.85,2.9-1.51,4.57-5.82,6.84-8.09,2.04-2.07,5.51-1.62,6.99.88,4.34,7.35,11.19,10.71,20.53,10.08,3.21-.2,5.54-1.28,6.99-3.24,3.32-4.54,10.51-2.41,10.62,3.12.03,2.21.57,4.06,1.62,5.54,6.28,8.8,14.09,11.7,23.49,8.69,4.26-1.36,8.35,2.47,6.93,6.53-.88,2.44-.91,4.77-.11,6.96,3.41,9.51,9.68,14.11,18.8,13.83,3.98-.14,6.5,4.23,4.4,7.61-5,8.09-3.78,16.21,3.64,24.39.28.31.62.57,1.02.74l6.73,2.9c3.21,1.39,3.69,5.71.88,7.75-6.56,4.8-8.75,12.18-6.59,22.18.2.85.57,1.62,1.11,2.27l6.56,7.87c1.5,1.82.82,4.6-1.36,5.51-14.48,6.13-18.46,16.3-11.9,30.53.91,1.93-.23,4.2-2.3,4.63-1.5.31-3.15.2-4.94-.34-.79-.23-1.65-.17-2.38.2h-.03ZM407.65,316.48c0-44.07-35.73-79.8-79.8-79.8s-79.8,35.72-79.8,79.8,35.73,79.8,79.8,79.8,79.8-35.73,79.8-79.8h0Z"/>
  <path class="st0" d="M397.71,316.54c0,38.56-31.27,69.83-69.83,69.83s-69.83-31.27-69.83-69.83,31.27-69.83,69.83-69.83,69.83,31.27,69.83,69.83h0ZM354.43,279.03l-5.54-4.09c-.82-.6-1.93-.6-2.75-.03-3.69,2.53-7.04,2.3-10.08-.68-4.49-4.46-10.59-6.65-15.9-.77-3.07,3.38-6.5,4.29-10.34,2.78-5.03-2.02-7.19.62-9.8,4.37-.34.45-.54.99-.62,1.56-.62,5.08-2.78,7.61-6.5,7.64-5.23.03-6.16,3.09-8.01,6.7-.4.8-.37,1.76.11,2.53,3.38,5.48,2.47,10.08-2.73,13.74-.82.57-1.31,1.51-1.31,2.53v5.96c0,1.08.62,2.05,1.62,2.5,4.46,2.05,5.96,4.77,4.51,8.21-1.99,4.71-1.33,8.55,1.99,11.47.68.62,1.59.91,2.47.82,2.93-.26,5.68,1.42,8.26,5.03.48.65.68,1.48.6,2.27-1.02,8.92,9.12,5.96,14.57,4.34.91-.26,1.88-.11,2.67.43,2.39,1.65,2.5,5,5.17,6.42,9.49,5.06,11.25-10.17,21.33-4.43,4.29,2.44,9.6-.37,9.51-5.03-.08-4.83,3.18-7.61,9.83-8.35.79-.08,1.56-.4,2.22-.88,4.49-3.32,5.54-6.99,3.12-10.99-.43-.74-.65-1.56-.65-2.39.11-8.15,13.86-10.03,2.36-20.45-3.27-2.98-3.49-6.84-.65-11.64.62-1.02.65-2.3.08-3.35-2.41-4.46-5.57-6.45-9.46-5.94-.91.11-1.82-.2-2.47-.82-2.58-2.5-3.49-4.77-2.78-6.79.34-.97.03-2.07-.82-2.7v.03h-.01Z"/>
</svg>